HIERARCHY
ROOT joint_Root
{
	OFFSET 0.0 0.0 0.0
	CHANNELS 6 Xposition Yposition Zposition Zrotation Xrotation Yrotation 
	JOINT Hips
	{
		OFFSET -17.1583 93.1646 452.98
		CHANNELS 6 Xposition Yposition Zposition Zrotation Xrotation Yrotation 
		JOINT Spine
		{
			OFFSET 15.7357 0.0 0.0
			CHANNELS 6 Xposition Yposition Zposition Zrotation Xrotation Yrotation 
			JOINT Chest
			{
				OFFSET 8.98455 -0.406207 0.0
				CHANNELS 6 Xposition Yposition Zposition Zrotation Xrotation Yrotation 
				JOINT Neck
				{
					OFFSET 16.3773 0.0 0.0
					CHANNELS 6 Xposition Yposition Zposition Zrotation Xrotation Yrotation 
					JOINT Head
					{
						OFFSET 6.45672 0.0 0.0
						CHANNELS 6 Xposition Yposition Zposition Zrotation Xrotation Yrotation 
						End Site
						{
							OFFSET 0.0 0.0 0.0
						}
					}
				}
				JOINT Shoulder_L
				{
					OFFSET 12.9942 -0.242716 4.98039
					CHANNELS 6 Xposition Yposition Zposition Zrotation Xrotation Yrotation 
					JOINT UpperArm_L
					{
						OFFSET 5.34809 0.0 0.0
						CHANNELS 6 Xposition Yposition Zposition Zrotation Xrotation Yrotation 
						JOINT LowerArm_L
						{
							OFFSET 24.3286 1.87007e-05 0.0
							CHANNELS 6 Xposition Yposition Zposition Zrotation Xrotation Yrotation 
							JOINT Hand_L
							{
								OFFSET 22.2916 0.0 0.0
								CHANNELS 6 Xposition Yposition Zposition Zrotation Xrotation Yrotation 
								End Site
								{
									OFFSET 0.0 0.0 0.0
								}
							}
						}
					}
				}
				JOINT Shoulder_R
				{
					OFFSET 12.9945 -0.242716 -4.98039
					CHANNELS 6 Xposition Yposition Zposition Zrotation Xrotation Yrotation 
					JOINT UpperArm_R
					{
						OFFSET -5.34813 0.0 0.0
						CHANNELS 6 Xposition Yposition Zposition Zrotation Xrotation Yrotation 
						JOINT LowerArm_R
						{
							OFFSET -24.3289 0.000322201 0.0
							CHANNELS 6 Xposition Yposition Zposition Zrotation Xrotation Yrotation 
							JOINT Hand_R
							{
								OFFSET -22.2915 -0.000108084 0.0
								CHANNELS 6 Xposition Yposition Zposition Zrotation Xrotation Yrotation 
								End Site
								{
									OFFSET 0.0 0.0 0.0
								}
							}
						}
					}
				}
			}
		}
		JOINT UpperLeg_L
		{
			OFFSET -2.19248 -6.46944 0.0
			CHANNELS 6 Xposition Yposition Zposition Zrotation Xrotation Yrotation 
			JOINT LowerLeg_L
			{
				OFFSET 39.0811 0.0 -1.23785e-05
				CHANNELS 6 Xposition Yposition Zposition Zrotation Xrotation Yrotation 
				JOINT Foot_L
				{
					OFFSET 40.9854 0.0 -1.26872e-05
					CHANNELS 6 Xposition Yposition Zposition Zrotation Xrotation Yrotation 
					JOINT Toes_L
					{
						OFFSET 11.7543 0.0 0.0
						CHANNELS 6 Xposition Yposition Zposition Zrotation Xrotation Yrotation 
						End Site
						{
							OFFSET 0.0 0.0 0.0
						}
					}
				}
			}
		}
		JOINT UpperLeg_R
		{
			OFFSET -2.19251 6.46944 0.0
			CHANNELS 6 Xposition Yposition Zposition Zrotation Xrotation Yrotation 
			JOINT LowerLeg_R
			{
				OFFSET -39.0811 -0.00228153 -0.0401928
				CHANNELS 6 Xposition Yposition Zposition Zrotation Xrotation Yrotation 
				JOINT Foot_R
				{
					OFFSET -40.9854 0.0 0.0
					CHANNELS 6 Xposition Yposition Zposition Zrotation Xrotation Yrotation 
					JOINT Toes_R
					{
						OFFSET -11.7543 0.0 0.0
						CHANNELS 6 Xposition Yposition Zposition Zrotation Xrotation Yrotation 
						End Site
						{
							OFFSET 0.0 0.0 0.0
						}
					}
				}
			}
		}
	}
}
MOTION
Frames:	8
Frame Time:	0.0333333
0.000000 0.000000 0.000000 0.000000 0.000000 -0.000000 1.753800 92.934500 0.853929 86.987600 0.011198 1.076880 15.735700 0.000005 -0.000001 66.278700 87.306200 -64.090400 8.984550 -0.406207 -0.000000 -2.785700 -2.367920 4.319960 16.377300 -0.000001 -0.000001 4.511100 1.760870 -1.546420 6.456720 -0.000001 -0.000000 2.860390 1.570410 -3.030320 12.994200 -0.242716 4.980390 -92.348500 7.096840 -71.636500 5.348090 -0.000007 -0.000001 -75.285000 14.782700 2.036840 24.328600 0.000019 0.000005 13.796900 26.882600 -28.505900 22.291600 -0.000001 0.000005 -2.402190 5.027140 6.735930 12.994500 -0.242716 -4.980390 88.680400 4.067990 -72.010000 -5.348130 -0.000001 -0.000004 -70.601900 12.735700 -2.733670 -24.328900 0.000322 -0.000009 1.339430 3.484270 -21.057200 -22.291500 -0.000108 -0.000004 6.175400 5.266230 1.000020 -2.192480 -6.469440 -0.000000 -177.658000 -1.084810 -0.868958 39.081100 -0.000007 -0.000012 0.182843 -0.556919 18.176000 40.985400 -0.000006 -0.000013 4.789410 11.848900 -72.128200 11.754300 -0.000000 0.000003 -0.000326 0.172946 -9.561920 -2.192510 6.469440 -0.000001 -177.401000 6.920360 -177.241000 -39.081100 -0.002282 -0.040193 0.006571 -0.015418 11.852200 -40.985400 0.000008 0.000006 -3.765230 4.371500 -68.231900 -11.754300 -0.000006 -0.000006 -0.010021 0.271461 -5.544610
0.000000 0.000000 0.000000 0.000000 0.000000 -0.000000 1.724460 92.953600 0.789327 86.995200 0.108674 0.936688 15.735700 0.000005 -0.000001 65.844100 87.293200 -63.630200 8.984550 -0.406207 -0.000000 -2.777030 -2.418070 4.369950 16.377300 -0.000001 -0.000001 4.280370 1.647030 -1.301020 6.456720 -0.000001 -0.000000 2.488810 1.517940 -2.855820 12.994200 -0.242716 4.980390 -92.356700 7.116680 -71.624100 5.348090 -0.000007 -0.000001 -75.115700 12.019600 2.093490 24.328600 0.000019 0.000005 14.129900 26.374900 -29.538500 22.291600 -0.000001 0.000005 -1.752290 5.003170 7.251710 12.994500 -0.242716 -4.980390 88.666400 4.084080 -71.899300 -5.348130 -0.000001 -0.000004 -69.902500 10.735400 -2.758210 -24.328900 0.000322 -0.000009 1.506290 3.648770 -22.463800 -22.291500 -0.000108 -0.000004 5.937810 5.254890 1.303460 -2.192480 -6.469440 -0.000000 -177.635000 -1.042560 -1.029570 39.081100 -0.000007 -0.000012 0.180169 -0.551362 18.096200 40.985400 -0.000006 -0.000013 4.759020 11.930600 -72.046300 11.754300 -0.000000 0.000003 -0.000335 0.173091 -9.556030 -2.192510 6.469440 -0.000001 -177.379000 6.982090 -177.365000 -39.081100 -0.002282 -0.040193 0.005541 -0.010625 11.723400 -40.985400 0.000008 0.000006 -3.852090 4.352180 -68.092200 -11.754300 -0.000006 -0.000006 -0.009964 0.271034 -5.562080
0.000000 0.000000 0.000000 0.000000 0.000000 -0.000000 1.687670 92.974300 0.704348 86.977500 0.184426 0.712270 15.735700 0.000005 -0.000001 65.430800 87.295100 -63.178100 8.984550 -0.406207 -0.000000 -2.794960 -2.455960 4.446320 16.377300 -0.000001 -0.000001 3.986460 1.488830 -1.005360 6.456720 -0.000001 -0.000000 2.016980 1.440620 -2.632200 12.994200 -0.242716 4.980390 -92.386200 7.185200 -71.573700 5.348090 -0.000007 -0.000001 -74.850900 8.539740 2.492580 24.328600 0.000019 0.000005 15.097300 25.607400 -31.971900 22.291600 -0.000001 0.000005 -1.194600 4.971290 7.922140 12.994500 -0.242716 -4.980390 88.669900 4.053460 -71.816000 -5.348130 -0.000001 -0.000004 -69.155600 8.259960 -2.619960 -24.328900 0.000322 -0.000009 1.745690 3.800620 -24.704600 -22.291500 -0.000108 -0.000004 5.608340 5.228710 1.989490 -2.192480 -6.469440 -0.000000 -177.588000 -1.009980 -1.313110 39.081100 -0.000007 -0.000012 0.179854 -0.551516 18.061900 40.985400 -0.000006 -0.000013 4.717040 11.977400 -71.989400 11.754300 -0.000000 0.000003 -0.000330 0.173008 -9.559400 -2.192510 6.469440 -0.000001 -177.299000 6.973830 -177.603000 -39.081100 -0.002282 -0.040193 0.005215 -0.009147 11.606200 -40.985400 0.000008 0.000006 -3.912920 4.291570 -67.982800 -11.754300 -0.000006 -0.000006 -0.009841 0.270111 -5.599820
0.000000 0.000000 0.000000 0.000000 0.000000 -0.000000 1.649600 92.990400 0.637943 86.984800 0.265604 0.563765 15.735700 0.000005 -0.000001 65.434900 87.274400 -63.160800 8.984550 -0.406207 -0.000000 -2.756230 -2.474020 4.489590 16.377300 -0.000001 -0.000001 3.719950 1.323400 -0.676714 6.456720 -0.000001 -0.000000 1.381920 1.286040 -2.219950 12.994200 -0.242716 4.980390 -92.394900 7.174280 -71.485000 5.348090 -0.000007 -0.000001 -74.462900 5.223950 2.977720 24.328600 0.000019 0.000005 16.094400 24.142400 -35.200500 22.291600 -0.000001 0.000005 -0.271352 4.957910 8.202060 12.994500 -0.242716 -4.980390 88.650000 4.084780 -71.694200 -5.348130 -0.000001 -0.000004 -68.295500 5.111250 -2.379330 -24.328900 0.000322 -0.000009 2.142460 4.088940 -27.695300 -22.291500 -0.000108 -0.000004 5.094460 5.198350 2.760850 -2.192480 -6.469440 -0.000000 -177.577000 -0.903089 -1.489660 39.081100 -0.000007 -0.000012 0.180229 -0.554216 18.014700 40.985400 -0.000006 -0.000013 4.665680 11.947200 -71.977100 11.754300 -0.000000 0.000003 -0.000394 0.174020 -9.518310 -2.192510 6.469440 -0.000001 -177.241000 7.052120 -177.746000 -39.081100 -0.002282 -0.040193 0.005575 -0.010998 11.507700 -40.985400 0.000008 0.000006 -3.865830 4.220470 -67.955800 -11.754300 -0.000006 -0.000006 -0.010135 0.272309 -5.509940
0.000000 0.000000 0.000000 0.000000 0.000000 -0.000000 1.605210 93.005200 0.533469 86.986200 0.341756 0.431402 15.735700 0.000005 -0.000001 65.992400 87.254200 -63.681800 8.984550 -0.406207 -0.000000 -2.697160 -2.444300 4.564460 16.377300 -0.000001 -0.000001 3.471270 1.147640 -0.316033 6.456720 -0.000001 -0.000000 0.639879 1.187150 -1.742020 12.994200 -0.242716 4.980390 -92.412900 7.192210 -71.398700 5.348090 -0.000007 -0.000001 -73.933000 1.814610 3.415830 24.328600 0.000019 0.000005 18.179500 23.486800 -39.486800 22.291600 -0.000001 0.000005 0.502066 4.949880 8.366120 12.994500 -0.242716 -4.980390 88.658000 4.028760 -71.559100 -5.348130 -0.000001 -0.000004 -67.401500 1.900780 -2.061680 -24.328900 0.000322 -0.000009 2.515600 4.105620 -31.544200 -22.291500 -0.000108 -0.000004 5.022980 5.160760 3.684310 -2.192480 -6.469440 -0.000000 -177.551000 -0.822756 -1.712450 39.081100 -0.000007 -0.000012 0.178630 -0.549330 18.013700 40.985400 -0.000006 -0.000013 4.620750 11.962300 -71.869800 11.754300 -0.000000 0.000003 -0.000341 0.173183 -9.552280 -2.192510 6.469440 -0.000001 -177.187000 7.016770 -177.934000 -39.081100 -0.002282 -0.040193 0.006070 -0.013470 11.473800 -40.985400 0.000008 0.000006 -3.854860 4.181800 -67.886000 -11.754300 -0.000006 -0.000006 -0.009987 0.271207 -5.555000
0.000000 0.000000 0.000000 0.000000 0.000000 -0.000000 1.551720 93.016900 0.472805 86.992200 0.394014 0.343749 15.735700 0.000005 -0.000001 66.788400 87.218300 -64.435700 8.984550 -0.406207 -0.000000 -2.600180 -2.404640 4.651390 16.377300 -0.000001 -0.000001 3.285750 0.985101 0.069939 6.456720 -0.000001 -0.000000 -0.312297 1.083460 -1.156820 12.994200 -0.242716 4.980390 -92.454200 7.242510 -71.223200 5.348090 -0.000007 -0.000001 -73.260800 -1.269940 3.795900 24.328600 0.000019 0.000005 20.973100 22.739500 -44.759700 22.291600 -0.000001 0.000005 2.007030 4.905430 9.268240 12.994500 -0.242716 -4.980390 88.683300 3.917610 -71.405900 -5.348130 -0.000001 -0.000004 -66.521900 -1.553220 -1.670260 -24.328900 0.000322 -0.000009 3.315350 4.510840 -36.379200 -22.291500 -0.000108 -0.000004 5.034260 5.121400 4.618440 -2.192480 -6.469440 -0.000000 -177.521000 -0.773197 -1.844300 39.081100 -0.000007 -0.000012 0.178475 -0.549431 17.996000 40.985400 -0.000006 -0.000013 4.569440 11.968000 -71.833100 11.754300 -0.000000 0.000003 -0.000317 0.172804 -9.567690 -2.192510 6.469440 -0.000001 -177.119000 7.007300 -178.027000 -39.081100 -0.002282 -0.040193 0.006476 -0.015585 11.389800 -40.985400 0.000008 0.000006 -3.745150 4.072380 -67.821100 -11.754300 -0.000006 -0.000006 -0.009875 0.270371 -5.589170
0.000000 0.000000 0.000000 0.000000 0.000000 -0.000000 1.490060 93.036900 0.371782 87.008100 0.502711 0.239849 15.735700 0.000005 -0.000001 67.471400 87.195300 -65.080800 8.984550 -0.406207 -0.000000 -2.531780 -2.363190 4.729480 16.377300 -0.000001 -0.000001 3.137910 0.862864 0.482573 6.456720 -0.000001 -0.000000 -1.362880 0.983656 -0.388778 12.994200 -0.242716 4.980390 -92.469400 7.249290 -71.131700 5.348090 -0.000007 -0.000001 -72.526700 -4.372390 3.988560 24.328600 0.000019 0.000005 24.166900 21.643200 -50.580400 22.291600 -0.000001 0.000005 3.616110 4.855930 10.242900 12.994500 -0.242716 -4.980390 88.714500 3.789030 -71.244100 -5.348130 -0.000001 -0.000004 -65.695700 -5.127920 -1.112280 -24.328900 0.000322 -0.000009 4.463510 4.913470 -42.348500 -22.291500 -0.000108 -0.000004 5.764250 5.076500 5.643800 -2.192480 -6.469440 -0.000000 -177.496000 -0.574466 -2.007380 39.081100 -0.000007 -0.000012 0.174650 -0.539682 17.932700 40.985400 -0.000006 -0.000013 4.484400 11.909400 -71.696100 11.754300 -0.000000 0.000003 -0.000163 0.170329 -9.668230 -2.192510 6.469440 -0.000001 -177.052000 6.961030 -178.153000 -39.081100 -0.002282 -0.040193 0.006697 -0.016831 11.289500 -40.985400 0.000008 0.000006 -3.708030 3.913720 -67.739800 -11.754300 -0.000006 -0.000006 -0.009943 0.270877 -5.568510
0.000000 0.000000 0.000000 0.000000 0.000000 -0.000000 1.418140 93.042100 0.312249 87.035800 0.674417 0.246105 15.735700 0.000005 -0.000001 67.755400 87.127000 -65.315600 8.984550 -0.406207 -0.000000 -2.393000 -2.390680 4.830000 16.377300 -0.000001 -0.000001 3.060270 0.766475 0.910133 6.456720 -0.000001 -0.000000 -2.654070 1.004930 0.451692 12.994200 -0.242716 4.980390 -92.484300 7.230510 -70.979900 5.348090 -0.000007 -0.000001 -71.819600 -7.517960 4.074140 24.328600 0.000019 0.000005 27.102600 19.531500 -56.844700 22.291600 -0.000001 0.000005 5.150490 4.799520 11.323000 12.994500 -0.242716 -4.980390 88.730100 3.705530 -71.068600 -5.348130 -0.000001 -0.000004 -64.800700 -8.560390 -0.522202 -24.328900 0.000322 -0.000009 6.092980 5.228390 -49.512300 -22.291500 -0.000108 -0.000004 6.776580 5.015570 6.985100 -2.192480 -6.469440 -0.000000 -177.480000 -0.414525 -2.077530 39.081100 -0.000007 -0.000012 0.177151 -0.546255 17.968200 40.985400 -0.000006 -0.000013 4.433160 11.931800 -71.731300 11.754300 -0.000000 0.000003 -0.000365 0.173556 -9.537140 -2.192510 6.469440 -0.000001 -176.997000 7.084780 -178.197000 -39.081100 -0.002282 -0.040193 0.008066 -0.023647 11.309000 -40.985400 0.000008 0.000006 -3.568290 3.803600 -67.778200 -11.754300 -0.000006 -0.000006 -0.010061 0.271761 -5.532350
